<svg width="1080" height="1080" viewBox="0 0 1080 1080" fill="none" xmlns="http://www.w3.org/2000/svg">
  <rect width="1080" height="1080" fill="#000000"/>
  <path d="M195 547L195 400.503L324.766 400.503L331.072 424.5L245.016 424.5L245.016 459.05L312.625 459.05L318.931 483.047L245.016 483.047L245.016 547L195 547Z" fill="white"/>
  <path d="M438 400.503L402.563 400.503L360.281 547L413.344 547L422.281 518.45L440.047 518.45L491.062 400.503L438 400.503ZM431.969 493.594L447.375 448.672L462.781 493.594L431.969 493.594Z" fill="white"/>
  <path d="M544 547L544 400.503L673.766 400.503L680.072 424.5L594.016 424.5L594.016 459.05L661.625 459.05L667.931 483.047L594.016 483.047L594.016 547L544 547Z" fill="white"/>
  <path d="M195 347.231L245.016 347.231L244.745 235L195 235L195 347.231Z" fill="white"/>
  <path d="M774.016 235L774.016 347.231L824.032 347.231L824.032 235L774.016 235Z" fill="white"/>
  <path d="M774.016 400.503L774.016 547L824.032 547L824.032 400.503L774.016 400.503Z" fill="white"/>
  <path d="M885 547L885 400.503L940.828 400.503L914.688 547L885 547Z" fill="white"/>
</svg>
